<?xml version="1.0" encoding="UTF-8"?>
<svg width="100pt" height="100pt" version="1.1" viewBox="0 0 100 100" xmlns="http://www.w3.org/2000/svg">
 <path d="m84.301 18c-17.199-17.199-44.801-17.602-62.5-1.5l-4.1016-4.1016c-1.6016-1.6016-4-2.1992-6.1992-1.6016-2.1992 0.69922-3.8984 2.5-4.3008 4.6992l-4.5977 21.402c-0.39844 2.1016 0.19922 4.1992 1.6992 5.6992s3.6016 2.1016 5.6992 1.6992l21.398-4.5c1.1992-0.30078 2.3008-0.89844 3.1016-1.6992 0.69922-0.69922 1.3008-1.6016 1.6016-2.6016 0.60156-2.1992 0-4.6016-1.6016-6.1992l-3.8984-3.8984c12.898-11.398 32.5-10.898 44.797 1.4023 12.801 12.801 12.801 33.602 0 46.398-12.797 12.801-33.598 12.801-46.398 0-4.1016-4.1016-7-9.1992-8.5-14.801-0.89844-3.3008-4.3008-5.3008-7.6016-4.3984-3.3008 0.89844-5.3008 4.3008-4.3984 7.6016 2 7.6992 6.1016 14.801 11.801 20.398 17.699 17.699 46.398 17.699 64.102 0 17.496-17.602 17.496-46.398-0.10156-64z"/>
</svg>
