<?xml version="1.0" encoding="UTF-8"?>
<svg width="512pt" height="512pt" version="1.1" viewBox="0 0 512 512" xmlns="http://www.w3.org/2000/svg">
 <path d="m288 288h-48c-5.7148 0-11 3.0508-13.855 8-2.8594 4.9492-2.8594 11.051 0 16 2.8555 4.9492 8.1406 8 13.855 8h48c5.7148 0 11-3.0508 13.855-8 2.8594-4.9492 2.8594-11.051 0-16-2.8555-4.9492-8.1406-8-13.855-8z" fill="#001933"/>
 <path d="m400 160h-65.695l-8.3203-29.105c-2.8516-10.043-8.8984-18.883-17.223-25.18-8.3281-6.2969-18.48-9.707-28.922-9.7148h-13.441c-15.066-0.027344-29.27 7.0352-38.336 19.07-9.0703 12.035-11.941 27.637-7.7578 42.113l0.80078 2.8164h-109.11c-44.801 0-80 56.223-80 128s35.199 128 80 128h288c44.801 0 80-56.223 80-128s-35.199-128-80-128zm-288 224c-22.703 0-48-39.426-48-96s25.297-96 48-96 48 39.426 48 96-25.297 96-48 96zm288 0h-234.69c18.363-28.582 27.664-62.043 26.688-96 0.97656-33.957-8.3242-67.418-26.688-96h64.91l10.398 36.383h0.003906c1.0352 4.2227 3.7422 7.8438 7.5 10.027s8.2461 2.7461 12.426 1.5547c4.1797-1.1953 7.6953-4.0352 9.7383-7.875 2.043-3.8359 2.4336-8.3398 1.0859-12.473l-20.336-71.266c-1.3594-4.8164-0.39062-9.9961 2.625-13.988 3.0156-3.9961 7.7305-6.3516 12.734-6.3633h13.441c3.4727 0.007812 6.8477 1.1484 9.6133 3.2422 2.7695 2.0977 4.7812 5.0352 5.7305 8.375l11.68 40.785v-0.003906c0.95703 3.3438 2.9727 6.2812 5.7461 8.375 2.7773 2.0938 6.1562 3.2266 9.6289 3.2266h77.762c22.703 0 48 39.426 48 96 0.015625 10.734-0.95703 21.445-2.9102 32h-61.09c-5.7148 0-11 3.0508-13.855 8-2.8594 4.9492-2.8594 11.051 0 16 2.8555 4.9492 8.1406 8 13.855 8h51.09c-9.4102 20.062-22.625 32-35.09 32z" fill="#001933"/>
 <path d="m112 256c-4.2422 0-8.3125 1.6875-11.312 4.6875s-4.6875 7.0703-4.6875 11.312v32c0 5.7148 3.0508 11 8 13.855 4.9492 2.8594 11.051 2.8594 16 0 4.9492-2.8555 8-8.1406 8-13.855v-32c0-4.2422-1.6875-8.3125-4.6875-11.312s-7.0703-4.6875-11.312-4.6875z" fill="#001933"/>
</svg>
